<svg xmlns="http://www.w3.org/2000/svg" xmlns:xlink="http://www.w3.org/1999/xlink" viewBox="0 0 82.9 50.92"><defs><style>.cls-1{fill:url(#linear-gradient);}.cls-2{fill:url(#linear-gradient-2);}.cls-3{fill:url(#linear-gradient-3);}.cls-4{fill:url(#linear-gradient-4);}</style><linearGradient id="linear-gradient" x1="42.72" y1="33.95" x2="82.9" y2="33.95" gradientUnits="userSpaceOnUse"><stop offset="0" stop-color="#f58232"/><stop offset="0.75" stop-color="#f04e23"/><stop offset="0.95" stop-color="#d0441d"/></linearGradient><linearGradient id="linear-gradient-2" x1="1797.65" y1="1346.45" x2="1834.22" y2="1346.45" gradientTransform="matrix(-1, 0, 0, 1, 1876.95, -1333.74)" gradientUnits="userSpaceOnUse"><stop offset="0" stop-color="#fed600"/><stop offset="0.15" stop-color="#fdd101"/><stop offset="0.33" stop-color="#fcc305"/><stop offset="0.52" stop-color="#faac0b"/><stop offset="0.72" stop-color="#f68b14"/><stop offset="0.93" stop-color="#f2611f"/><stop offset="1" stop-color="#f05023"/></linearGradient><linearGradient id="linear-gradient-3" x1="0" y1="33.95" x2="40.18" y2="33.95" gradientTransform="matrix(1, 0, 0, 1, 0, 0)" xlink:href="#linear-gradient-2"/><linearGradient id="linear-gradient-4" x1="3.6" y1="12.71" x2="40.18" y2="12.71" xlink:href="#linear-gradient"/></defs><g id="Layer_2" data-name="Layer 2"><g id="Layer_1-2" data-name="Layer 1"><path class="cls-1" d="M70.87,25.42l6.64-3.27A2.84,2.84,0,0,0,77.73,17a10.74,10.74,0,0,1,3.6,3.28C84.4,24.8,83,31.06,77,34L42.72,50.92V39.31Z"/><path class="cls-2" d="M66.62,11.57l10.31,5,.38.19.12.07.24.13.06,0a2.84,2.84,0,0,1-.22,5.17l-6.64,3.27-16.31-7.9L42.72,11.79V0Z"/><path class="cls-3" d="M12,25.42,5.39,22.15A2.84,2.84,0,0,1,5.17,17a10.74,10.74,0,0,0-3.6,3.28C-1.5,24.8-.07,31.06,5.88,34l34.3,16.92V39.31Z"/><path class="cls-4" d="M16.28,11.57,6,16.56l-.38.19-.12.07L5.23,17l-.06,0a2.84,2.84,0,0,0,.22,5.17L12,25.42l16.31-7.9,11.84-5.73V0Z"/></g></g></svg>